<svg viewBox="0 0 194.8 35.8" xmlns="http://www.w3.org/2000/svg"><g fill="#fffcfa"><path d="m76.1 21.3h-1.3c0 .9-.1 1.5-.2 1.7s-.2.3-.3.3c-.3.1-1.2.2-2.5.2-.5 0-1.3 0-2.6-.1v-2.1c0-2.6.1-4.4.2-5.4.3 0 .8 0 1.6-.1h1.4c.9 0 1.7.1 2.3.2.7.1 1.1.2 1.3.4.1 0 .1.1.1.1 0 .1.1.4.1.8.1.8.1 1.4.1 1.6h1.2c0-.7.1-1.4.1-2.3.1-.9.2-1.6.3-2.2l-.1-.2c-.9-.1-1.9-.2-2.9-.2l-7.3.1-5.4-.1v1.3c1 .1 1.6.1 1.8.2s.4.1.4.2c.1.1.1.1.1.2.1.3.1.9.2 1.7.1 2.7.1 4.1.1 4.2v6.2c0 .5 0 1.4-.1 2.6s-.1 2-.1 2.2c-.1.4-.1.7-.2.8s-.1.1-.2.2c-.2.1-.9.1-2 .1v1.2c1.9-.1 3.2-.1 4.1-.1l5.9.1v-1.1c-1.4-.1-2.2-.2-2.4-.2-.2-.1-.3-.2-.4-.3-.1-.2-.2-.7-.2-1.7-.1-1-.1-2.6-.1-5v-1.7h1.2c1.6 0 2.8.1 3.5.2.3.1.5.2.5.3.1.3.2 1 .3 2.3h1.3c.2-2.7.2-4.9.2-6.6zm8.4 13.8c.7 0 1.8 0 3.5.1 2.2.1 3.4.1 3.6.1 1.3 0 2.2 0 2.9-.1.3 0 .6-.1.9-.2 0-.2.1-.8.1-1.7l.4-3.1c0-.1 0-.2 0-.5h-1.2c-.2 1-.4 1.9-.6 2.6-.1.3-.2.5-.3.6-.2.1-.4.1-.8.2-1.1.2-2.5.3-4 .3-.5 0-1.5 0-2.8-.1 0-.3 0-1.2 0-2.6s0-2.8 0-4.3c0-2.7 0-4.2 0-4.4 0-1.7 0-3.1.1-4.2 0-1.1.1-1.7.1-1.9 0-.1.1-.2.2-.3.3-.1.9-.2 2.1-.3v-1.3c-1.6.1-3.4.1-5.2.1-1.6 0-3.1 0-4.4-.1v1.3c1.3.1 2.1.2 2.3.3.1.1.2.2.2.3.1.3.2 1.4.2 3.3v5.9c0 2.2 0 4-.1 5.6 0 1.6-.1 2.5-.1 2.7 0 .1 0 .1-.1.2s-.2.2-.4.3c-.5.3-.8.5-1.1.6v.8c2-.2 3.5-.2 4.5-.2zm13-4.2c.9 1.6 2.2 2.8 3.8 3.6s3.6 1.2 5.8 1.2c2.1 0 4-.3 5.6-1 1.2-.5 2.3-1.2 3.2-2.2.9-.9 1.6-2 2.1-3.2.7-1.6 1-3.4 1-5.3 0-1.1-.1-2.1-.3-3.1-.2-.9-.6-1.8-1-2.6s-1.1-1.5-1.9-2.3c-.9-.7-1.8-1.3-2.9-1.7-1.5-.5-3.2-.8-5-.8s-3.5.3-5.1.8c-1.2.4-2.3 1.1-3.4 2.1-1 1-1.8 2.1-2.4 3.5s-.8 3-.8 4.8c0 2.6.4 4.6 1.3 6.2zm4-11.4c.5-1.4 1.2-2.4 2.3-3.1 1-.7 2.3-1 3.8-1 1.3 0 2.3.2 3.1.7.8.4 1.5 1.1 2 1.9.6.8 1 1.8 1.3 3s.5 2.5.5 3.9c0 2.1-.3 3.8-.9 5.3-.6 1.4-1.4 2.5-2.4 3.1s-2.1.9-3.4.9c-1.4 0-2.6-.3-3.6-1-1-.6-1.8-1.7-2.5-3.3-.6-1.5-1-3.5-1-5.8.1-1.8.3-3.3.8-4.6zm19.8-3.9c.1.1.2.1.2.3.1.3.2 1 .2 2.3l.1 3.2v5.6l-.1 4.4c0 .8-.1 1.4-.2 1.8 0 .2-.1.4-.1.4-.1.1-.1.1-.3.2s-.9.1-2 .2v1.3c1.3-.1 2.8-.1 4.4-.1 1.8 0 3.5 0 5.2.1v-1.3c-1 0-1.6 0-1.8-.1-.2 0-.3-.1-.4-.2s-.2-.1-.2-.2c-.1-.2-.1-.5-.2-1.1 0-.3-.1-1.5-.1-3.5 0-1.7 0-3.3 0-4.8 0-1 0-2.9.1-5.7 0-1.3.1-2.1.1-2.5.5-.1 1-.1 1.4-.1 1.1 0 1.8.1 2.3.2.7.2 1.2.7 1.7 1.3.4.6.7 1.4.7 2.3s-.2 1.7-.6 2.5c-.4.7-.9 1.3-1.6 1.5-.6.3-1.5.4-2.7.4l-.2.5c.3.2.6.6.9 1 .6.9 1.4 2.1 2.4 3.6l3.2 5.3c.2.4.3.6.4.9.8 0 1.6-.1 2.4-.1.7 0 1.8 0 3.4.1v-1.3c-.5 0-.8 0-1-.1s-.3-.2-.5-.4-.6-.8-1.4-1.8c-.1-.1-.4-.6-1-1.5l-2.3-3.5c-.1-.1-.1-.2-.2-.3s-.2-.4-.6-.9c-.3-.5-.6-.9-.9-1.4 1.6-.6 2.7-1.4 3.5-2.4s1.1-2.1 1.1-3.3c0-1-.3-1.9-.8-2.6-.6-.7-1.2-1.2-2-1.4s-2-.3-3.6-.3c-.8 0-1.9 0-3.1.1-.8 0-1.7.1-2.7.1-1.2 0-2.2 0-2.9 0-1.4 0-2.2-.1-2.4-.1v1.2c1.2 0 2 .1 2.2.2zm24.2-1.5c-1.6 0-3.1 0-4.4-.1v1.3c1.1 0 1.7.1 1.9.1s.3.1.4.2.1.2.1.3c.1.3.1 1.1.2 2.4v3.9 6.3c0 1 0 2.2-.1 3.4-.1.8-.1 1.3-.1 1.4s-.1.2-.1.2c-.1.1-.2.1-.4.2-.2 0-.8.1-1.8.1v1.3c1.3-.1 2.7-.1 4.4-.1 1.9 0 3.6 0 5.3.1v-1.3c-1 0-1.6-.1-1.8-.1s-.4-.1-.5-.2-.2-.2-.2-.3c-.1-.3-.2-1-.2-2v-2.8-6.1c0-.2 0-1.5.1-4 0-.7 0-1.2 0-1.5 0-.5.1-.8.2-1 0-.1.1-.2.2-.2.1-.1.2-.1.4-.2.2 0 .8-.1 1.8-.1v-1.3c-1.8.1-3.6.1-5.4.1zm11.7 21 4.5.1c2 0 3.8-.2 5.2-.7s2.8-1.2 4-2.2 2.2-2.3 2.9-3.8 1.1-3.2 1.1-5.2c0-1.5-.2-2.9-.7-4.2-.3-.8-.7-1.5-1.2-2.1-.5-.7-1.2-1.2-2-1.7s-1.7-.8-2.8-1-2.5-.3-4.3-.3c-.8 0-1.8 0-3.1.1-1.8.1-3 .1-3.6.1l-5.5-.1v1.2c1.1.1 1.7.2 1.9.3.2 0 .3.1.4.2s.1.1.1.2c.1.4.2 1.3.2 2.7.1 2.6.1 4.5.1 5.9v2.4c0 3-.1 5.2-.2 6.6-.3.2-.7.5-1 .7-.2.1-.3.2-.4.2v.7zm1.3-7.7v-3.5c0-4 .1-6.7.2-8.1.9-.1 1.8-.2 2.6-.2 2.1 0 3.6.2 4.6.5 1 .4 1.9.9 2.5 1.8.7.8 1.1 1.8 1.4 2.8.3 1.1.4 2.2.4 3.3 0 1.3-.1 2.4-.4 3.5s-.7 2-1.2 2.8-1.1 1.4-1.7 1.8-1.2.7-2 .9c-1 .3-2.2.4-3.6.4-.9 0-1.8-.1-2.7-.2-.1-.8-.1-2.8-.1-5.8zm17.2 7.7 3.5.1v-1.2c-1.2 0-1.9-.1-2.2-.3-.2-.1-.2-.3-.2-.5 0-.3.3-1.2.8-2.6l.7-1.8h7.8l1.3 3.3c.2.6.3 1 .3 1.2s-.1.3-.2.4c-.2.1-.8.2-2.1.2v1.2l5.3-.1 4.2.1v-1.1c-.3 0-.5-.1-.7-.1-.5 0-.8-.1-.9-.1s-.2-.1-.3-.2-.2-.2-.3-.4l-.6-1.4-.9-2.1-6.8-15.8h-2.2l-1.3 3.4-3.9 9.8c-.7 1.8-1.3 3.1-1.5 3.7-.6 1.3-.9 2.1-1 2.3s-.2.4-.3.5-.2.2-.4.2-.6.1-1.5.2v1.2zm6.3-15.9 3.2 7.8c-.9 0-2 0-3.1 0-1.2 0-2.3 0-3.2 0zm-12.9-9.2c.1.4.4.6.7.8s.8.3 1.4.3c.5 0 .9-.1 1.3-.2.4-.2.8-.4 1.2-.7s.7-.5.9-.8c.3-.3.5-.8.7-1.5.2-.6.3-1.3.3-1.9 0-.3 0-.6-.1-.9s-.2-.5-.4-.7-.4-.4-.8-.5c-.3-.1-.7-.2-1.2-.2s-1 .1-1.4.3-.9.4-1.2.7c-.4.3-.6.5-.8.7-.2.3-.5.8-.7 1.4-.2.7-.3 1.3-.3 1.9.2.5.3.9.4 1.3zm1.8-3.5c.2-.8.5-1.4.7-1.7.3-.3.6-.4 1-.4s.7.1.9.4.4.7.4 1.3c0 .7-.1 1.4-.3 2.2-.1.5-.3.9-.5 1.2s-.4.5-.6.7c-.2.1-.4.2-.7.2-.4 0-.7-.1-1-.4-.2-.3-.3-.7-.3-1.3.1-.6.2-1.4.4-2.2zm6.8-1.7h1l-1.1 5.5c-.3 1.5-.5 2.5-.7 3-.1.2-.2.4-.3.5s-.2.1-.4.1c-.1 0-.3-.1-.4-.2s-.2-.3-.3-.5h-.2c-.1.3-.1.5-.2.7s-.2.5-.3.9c.2.1.4.1.6.1s.5-.1.7-.2c.5-.2.9-.6 1.4-1.2.5-.5.8-1.2 1.1-1.9s.6-1.8 1-3.4l.8-3.5h.7 1.1c0-.2.1-.5.2-.8l-.1-.1c-.1.2-.3.2-.7.2-.5 0-.9 0-1 0h-.2c.1-.6.3-1.3.4-1.9.1-.2.1-.4.2-.5s.2-.2.3-.3.2-.1.4-.1.3.1.5.2.4.3.6.7h.2c.1-.6.2-1.2.4-1.9-.1-.2-.3-.2-.5-.2-.3 0-.5 0-.7.1s-.5.3-1 .7-1 .8-1.4 1.2c-.3.3-.5.5-.6.8-.1.2-.2.4-.3.9 0 .2-.1.3-.1.4-.2.1-.5.2-.8.3s-.6.2-.7.2l-.1.4c.1-.2.3-.2.5-.2zm-114.6-3c.1.1.1.1.2.2 0 .1.1.2.1.4v1.6 1.6 1.2 1.2c0 .2.1.5.2.8s.3.5.6.7.6.4 1 .5c.6.2 1.2.3 1.8.3s1-.1 1.5-.2c.4-.1.8-.3 1.1-.5s.5-.5.7-.8.3-.6.3-1c.1-.4.1-.8.1-1.2v-1.5c0-.4 0-1 0-1.8s.1-1.2.1-1.3.1-.2.1-.2c.1-.1.3-.1.7-.1v-.5h-1.4c-.1 0-.1 0-.2 0s-.6 0-1.4 0v.5c.5 0 .8.1.9.1s.1.1.1.2.1.4.1 1v2 1.3c0 .9-.1 1.5-.2 1.8s-.4.6-.7.8-.8.3-1.4.3c-.5 0-.9-.1-1.3-.2s-.6-.3-.7-.6c-.2-.2-.3-.6-.3-1 0-.2 0-.7 0-1.4v-.7-1.5c0-.9 0-1.5.1-1.7 0-.1.1-.2.1-.2.1-.1.4-.1.9-.1v-.6h-.2-.9-.9-2.1v.5zm11.3 8.3h1.7 1.4v-.6c-.1 0-.1 0-.1 0-.1 0-.3 0-.6-.1-.1 0-.2 0-.2-.1 0 0-.1-.1-.1-.1 0-.1-.1-.4-.1-.9 0-.7 0-1.4 0-2.1v-3c2.5 3.1 4.4 5.4 5.8 6.9.4.1.7.1 1.1.2l.1-.1c-.1-.6-.1-2.3-.1-5.1 0-.4 0-.9 0-1.7s.1-1.2.1-1.5c0 0 0-.1.1-.1.1-.1.4-.1.9-.1v-.5c-.7 0-1.2 0-1.6 0s-.9 0-1.4 0v.5c.6 0 .9.1 1 .1s.1.1.1.3c.1.4.1 1.7.1 4v1.5c-.6-.6-1.3-1.4-2.2-2.5-1.2-1.5-2.3-2.8-3.2-3.9h-.6-.9c-.3 0-.6 0-1.2 0v.5c.4 0 .7.1.8.1s.2.1.2.1.1.1.1.2v.6 1.8 2 1.4c0 .6-.1 1-.1 1.2 0 .1 0 .2-.1.2 0 0-.1.1-.1.1-.1 0-.4 0-.9.1zm14.6-8.9c-.7 0-1.3 0-1.8 0v.6c.5 0 .7 0 .8.1.1 0 .1 0 .2.1 0 0 0 .1.1.1 0 .1.1.5.1 1v1.6 2.7c0 .4 0 .9-.1 1.4v.6s0 .1-.1.1c0 0-.1.1-.2.1s-.3 0-.8 0v.6h1.8 2.2v-.7c-.4 0-.7 0-.8 0s-.2 0-.2-.1c0 0-.1-.1-.1-.1 0-.1-.1-.4-.1-.8v-1.2-2.6c0-.1 0-.6 0-1.7 0-.3 0-.5 0-.6 0-.2 0-.3.1-.4 0 0 0-.1.1-.1 0 0 .1-.1.2-.1h.8v-.6c-.7 0-1.4 0-2.2 0zm10.1 8.9c.3-.7.8-2 1.5-3.7l.9-2 .5-1.1c.4-.9.6-1.3.7-1.4s.3-.1.7-.1v-.6h-1.4-1.6v.6h.7.2s.1 0 .1.1v.2.2c0 .2-.2.5-.3 1-.3.7-.4 1.1-.5 1.2l-1.4 3.5-1.6-4v-.1s-.1-.2-.3-.6c-.3-.7-.4-1.1-.4-1.2s0-.1.1-.2c0 0 .1-.1.2-.1.2 0 .4-.1.8-.1v-.5h-2.3c-.2 0-.8 0-1.9 0v.6c.4 0 .7 0 .8.1.1 0 .2.2.4.6.2.3.6 1.3 1.3 3l.9 2.2c.3.8.7 1.6 1 2.5h.9zm9.2-.1h2.1 1 1.2l.1-.1c0-.5 0-1.2.1-2.1h-.5c-.1.6-.2.9-.2 1.2 0 .1-.1.1-.1.1-.1.1-.3.1-.7.1s-.8 0-1.3 0-.9 0-1.2 0c0-.2 0-.5 0-.8v-2.6h1c.5 0 .8 0 1.1.1.1 0 .2.1.3.2s.1.4.1.9h.5v-1.4-1.4h-.5c0 .4 0 .6-.1.8 0 .1-.1.1-.1.1s-.2 0-.4 0c-.6 0-1 0-1 0-.3 0-.6 0-.9 0v-1.3c0-.7 0-1.4.1-1.8h1.2c.4 0 .8 0 1.2.1.3 0 .5.1.5.1s.1.1.1.1c0 .1 0 .4.1.9h.5c0-.5.1-.9.1-.9l.1-.9v-.1c-.1 0-.2 0-.2 0-.5 0-.8 0-.9 0h-1.3c-.7 0-1.4 0-1.9 0-.3 0-.5 0-.8 0h-1.5v.5c.5 0 .8.1.9.1 0 0 .1.1.1.1 0 .1.1.4.1.9v1.2 2.9c0 .3 0 .9-.1 1.6 0 .4 0 .7-.1.9-.2.1-.4.2-.6.4v.3c1.1-.2 1.8-.2 1.9-.2zm8.4-8.2s.1.1.1.1c0 .1.1.4.1 1v1.3 2.4l-.1 1.9c0 .3 0 .6-.1.8 0 .1 0 .1-.1.2 0 0-.1.1-.1.1-.1 0-.4.1-.9.1v.6h1.8 2.2v-.8c-.4 0-.7 0-.7 0-.1 0-.1 0-.2-.1 0 0-.1-.1-.1-.1 0-.1-.1-.2-.1-.5 0-.1 0-.6 0-1.5 0-.7 0-1.4 0-2 0-.4 0-1.2 0-2.4 0-.5 0-.9 0-1 .2 0 .4-.1.6-.1.5 0 .8 0 1 .1.3.1.5.3.7.5.2.3.3.6.3 1s-.1.7-.3 1-.4.5-.7.6-.6.2-1.1.2l-.1.2c.1.1.3.2.4.4.3.4.6.9 1 1.5l1.4 2.2c.1.1.1.3.2.4h1 1.4v-.4c-.2 0-.3 0-.4-.1-.1 0-.1-.1-.2-.2s-.3-.3-.6-.7c0 0-.2-.2-.4-.6l-1-1.5s0-.1-.1-.1c0 0-.1-.2-.2-.4s-.3-.4-.4-.6c.7-.2 1.1-.6 1.5-1 .3-.4.5-.9.5-1.4 0-.4-.1-.8-.3-1.1s-.5-.5-.8-.6-.8-.1-1.5-.1c-.3 0-.8 0-1.3 0-.3 0-.7 0-1.1 0-.5 0-.9 0-1.2 0-.6 0-.9 0-1 0v.5c.5.2.8.2.9.2zm16.4.7c0-.3.1-.5.1-.8l-.1-.2c-.3-.2-.7-.3-1.1-.3-.4-.1-.9-.1-1.3-.1s-.9 0-1.3.1-.8.3-1.1.5-.6.5-.8.9-.3.8-.3 1.3c0 .3.1.7.2.9.1.3.3.5.5.8.2.2.5.4.9.5.2.1.7.2 1.5.3.5.1.9.2 1.1.4s.4.3.5.5.1.4.1.7-.1.6-.2.9c-.1.2-.4.4-.7.6-.3.1-.7.2-1.1.2-.5 0-.9-.1-1.3-.3s-.7-.4-.8-.7c-.1-.5-.1-.8-.1-1.1h-.5c0 1-.1 1.7-.2 2.2.5.2.9.4 1.3.5s.9.1 1.4.1c.7 0 1.3-.1 1.8-.3.3-.1.6-.3.9-.6s.5-.5.7-.8c.2-.4.3-.9.3-1.4 0-.3 0-.6-.1-.8s-.2-.5-.3-.6c-.1-.2-.3-.3-.5-.4s-.5-.2-.8-.3c-.1 0-.4-.1-.9-.2-.4-.1-.8-.1-1-.2-.3-.1-.6-.2-.7-.3-.2-.1-.3-.2-.4-.4s-.1-.4-.1-.7c0-.4.2-.7.5-1s.8-.4 1.3-.4c.4 0 .8.1 1.1.2s.6.3.7.5c0 .2.1.6.1 1h.5c.1-.6.1-1 .2-1.2zm5.6-1.3c-.7 0-1.3 0-1.8 0v.6c.5 0 .7 0 .8.1.1 0 .1 0 .2.1 0 0 0 .1.1.1 0 .1.1.5.1 1v1.6 2.7c0 .4 0 .9-.1 1.4v.6s0 .1-.1.1c0 0-.1.1-.2.1s-.3 0-.8 0v.6h1.8 2.2v-.7c-.4 0-.7 0-.8 0s-.2 0-.2-.1c0 0-.1-.1-.1-.1 0-.1-.1-.4-.1-.8v-1.2-2.6c0-.1 0-.6 0-1.7 0-.3 0-.5 0-.6 0-.2 0-.3.1-.4 0 0 0-.1.1-.1 0 0 .1-.1.2-.1h.8v-.6c-.7 0-1.4 0-2.2 0zm8.8 8.8c.6 0 1.3 0 2.1.1v-.5c-.5 0-.8-.1-.9-.1-.1-.1-.2-.1-.2-.2 0-.2-.1-.7-.1-1.7v-3.8c0-1 0-1.6 0-1.7h.9c.5 0 .9 0 1.3.1h.2s.1.1.1.3c0 .3.1.6.1.9h.5c0-.9 0-1.4 0-1.4 0-.2 0-.4.1-.7l-.1-.1c-.2 0-.4 0-.6 0-.4 0-1.1 0-2.1 0h-2.6c-1 0-1.7 0-2.1 0-.2 0-.4 0-.6 0l-.1.1c0 .2 0 .4.1.6v1.5h.5c0-.4 0-.7.1-1 0-.1 0-.2.1-.2 0 0 .1 0 .2-.1h1.2.9v1.7 3.8c0 .9 0 1.5-.1 1.6 0 .1-.1.2-.2.3s-.4.1-.9.1v.5c.9-.1 1.6-.1 2.2-.1zm10.4-6.4c-.3-.6-.6-1.1-.9-1.6-.2-.3-.4-.5-.5-.6s-.3-.2-.6-.4c-.2.1-.5.1-.7.2l-1.3.3v.5h.6c.1 0 .2.2.5.4.3.3.7.8 1 1.4.5.7.9 1.4 1.3 2.2.2.3.2.5.2.6v1.2 1.2c0 .2 0 .3-.1.4 0 0-.1.1-.2.1s-.4 0-.8.1v.6h1.9 2.2v-.7c-.5 0-.8 0-.8-.1-.1 0-.2-.1-.2-.1 0-.1-.1-.2-.1-.4s0-.6 0-1.2v-1c0-.2 0-.4 0-.5s.1-.3.2-.5c.1-.3.5-.9 1.1-1.8s1.1-1.7 1.7-2.4v-.3h-1c-.1.1-.2.4-.4.8-.7 1.2-1.1 1.9-1.2 2.1l-.8 1.3c-.3-.2-.6-.8-1.1-1.8z"/><path d="m56.1.6v33.9h1.5v-33.9z"/><path d="m36.2 29.4v-8.7h8v-5.7h-8v-8.1h8.8v3.1h5.8v-8.8h-23.2v5.7h2.2v22.5h-2.2v5.7h10.7v-5.7z"/><path d="m24.6 22.3v-15.4h2.1v-5.7h-10.7v5.7h2.1v13.5c0 5.7-.7 8.4-4.7 8.4-4.1 0-4.7-2.7-4.7-8.4v-13.5h2.1v-5.7h-10.8v5.7h2.1v15.4c0 3.4 0 6.1 1.6 8.6 1.8 2.8 5 4.6 9.7 4.6 8.2 0 11.2-4.3 11.2-13.2z"/></g></svg>